PathFileType	3	(X/Y/Z)	D:\minhoCalibration\240510\subject1_KPNP\preferred\preferred05.trc
DataRate	CameraRate	NumFrames	NumMarkers	Units	OrigDataRate	OrigDataStartFrame	OrigNumFrames
200.0	200.0	15	10	mm	200.0	455	162	
Frame#	Time	Left_Ankle_Outer1			Left_Ankle_Inner1			Left_Knee_Outer1			Left_Knee_Inner1			Left_Wrist1			Right_Wrist1			Right_Knee_Inner1			Right_Knee_Outer1			Right_Ankle_Inner1			Right_Ankle_Outer1			
		X1	Y1	Z1	X2	Y2	Z2	X3	Y3	Z3	X4	Y4	Z4	X5	Y5	Z5	X6	Y6	Z6	X7	Y7	Z7	X8	Y8	Z8	X9	Y9	Z9	X10	Y10	Z10	
455	2.265	-520.88562	155.44434	-526.05658	-558.78571	161.87505	-484.12946	-369.51224	570.22321	-405.39517	-466.3266	548.73547	-361.86145	-400.13748	1013.4628	-604.00122	-666.77393	1160.996	-398.5228	-346.60178	970.25067	-95.889435	-428.48306	1037.5253	-50.474419	-483.10999	683.60632	225.43066	-550.51917	732.08441	274.22983
456	2.27	-521.41516	154.68187	-526.43732	-559.63837	161.10075	-485.29578	-370.12912	569.66821	-405.63962	-467.38055	548.06409	-362.72815	-398.31229	1014.5301	-600.98438	-669.46936	1158.8264	-398.87503	-351.75906	965.33234	-95.594643	-436.35477	1029.5422	-49.060459	-491.6626	664.85468	213.56184	-560.58649	710.43188	262.38675
457	2.275	-521.60498	153.96286	-527.29248	-559.89917	160.53908	-486.04089	-370.63229	569.01947	-405.9715	-468.88403	547.92596	-362.51575	-396.52463	1015.3617	-597.90112	-672.1272	1156.3582	-399.62042	-356.69879	960.26715	-94.883514	-444.58658	1021.1979	-47.663578	-500.89728	645.53827	201.77431	-570.89032	688.76331	249.61212
458	2.28	-521.55518	153.36252	-528.56232	-560.0636	160.00204	-487.24991	-371.05603	568.22595	-406.27765	-470.06128	547.08826	-362.87564	-394.66458	1016.0377	-594.85712	-674.14362	1154.1958	-400.48499	-361.51105	954.68195	-93.671295	-452.90829	1012.5372	-46.215733	-508.61304	627.27661	187.3781	-581.00763	667.23547	235.56677
459	2.285	-521.68756	152.58214	-529.45825	-560.14465	159.08759	-488.19034	-371.45303	567.38574	-406.57022	-471.21924	545.58411	-364.00577	-392.68369	1016.4671	-591.97595	-676.46173	1151.7056	-400.94	-366.95966	948.50165	-91.688225	-461.09833	1003.4585	-44.803223	-517.56842	609.13373	173.02866	-591.50391	645.68958	220.75664
460	2.29	-521.62939	151.66591	-530.52069	-560.3125	158.00699	-489.19324	-371.66391	566.52209	-406.95459	-471.77609	544.70441	-364.76907	-391.01276	1016.8179	-588.7998	-678.2782	1148.7877	-402.05237	-372.59338	941.83643	-89.455399	-469.08713	993.82196	-43.49548	-525.08588	590.89728	157.73146	-601.80078	624.47333	204.62817
461	2.295	-521.79987	150.59863	-531.20911	-560.16516	157.47272	-490.6376	-371.80557	565.64148	-407.31711	-471.11322	543.64783	-366.22256	-389.3208	1016.9341	-585.86676	-679.31177	1146.0336	-403.82086	-378.44107	934.60254	-86.988174	-476.995	983.64417	-42.42075	-532.9613	573.07062	141.86995	-611.72833	603.60626	187.43269
462	2.3	-521.61853	149.84175	-532.56567	-560.45819	156.56311	-491.4982	-371.8584	564.56702	-407.67722	-471.82404	542.93378	-366.36951	-387.60834	1016.9949	-582.97369	-681.0177	1143.0093	-404.70441	-384.53143	926.81561	-84.315498	-484.83154	973.17169	-41.343128	-541.99323	555.44818	126.45063	-621.72638	583.35242	169.67224
463	2.305	-521.5686	148.88019	-533.57715	-560.6178	155.53073	-492.73303	-371.77444	563.60809	-408.04504	-472.25934	542.04144	-366.83942	-386.06287	1016.9349	-580.21344	-682.35156	1139.6168	-406.00006	-390.93402	918.45721	-81.524445	-492.77228	962.54993	-40.248158	-548.27985	538.2973	108.5562	-631.58948	563.59943	151.09003
464	2.31	-521.66339	147.86118	-534.60211	-560.72308	154.58466	-493.9325	-371.57968	562.49432	-408.42227	-472.43362	540.58099	-367.56436	-384.66852	1016.7633	-577.54132	-683.95166	1136.2396	-406.91824	-397.55206	909.61902	-78.934296	-500.66376	951.15985	-39.654736	-557.28156	521.24786	92.516891	-641.26965	544.42572	131.89331
465	2.315	-521.94604	146.62906	-535.25903	-560.67645	153.45685	-495.02176	-371.30057	561.36157	-408.69608	-472.98367	539.24536	-368.50421	-383.46902	1016.4745	-574.99573	-685.82928	1132.7571	-407.62466	-404.22211	900.44061	-76.625359	-508.85635	939.54993	-39.301434	-564.66229	505.38766	75.143921	-651.13043	526.09387	112.02004
466	2.32	-522.14319	145.64941	-536.18445	-560.94879	152.62094	-496.08813	-370.89597	560.09833	-408.93167	-472.18359	538.07831	-368.50986	-382.39401	1016.1354	-572.6153	-687.70422	1129.1149	-407.9231	-411.21609	890.82458	-74.598022	-517.35199	927.73157	-39.303699	-572.35059	489.69748	57.644447	-660.24182	508.1777	91.951118
467	2.325	-522.17151	144.78929	-537.51825	-561.16705	151.59689	-497.07245	-370.45535	558.84607	-409.06451	-471.57852	536.61237	-369.13541	-381.43869	1015.6493	-570.29895	-689.18207	1124.9675	-408.93695	-418.49136	880.85541	-73.012238	-525.98053	915.61487	-39.966839	-579.11652	474.60919	39.220577	-669.41327	490.97668	71.366753
468	2.33	-522.43048	143.74106	-538.46069	-561.74915	150.47469	-497.95941	-369.89307	557.3891	-409.17731	-471.21182	535.20386	-369.18582	-380.49759	1015.0605	-568.06616	-691.53766	1121.0182	-408.73056	-426.10626	870.49866	-72.059402	-534.59229	903.20776	-41.361744	-587.28186	459.75034	21.870363	-678.48376	474.44681	50.482262
469	2.335	-522.94379	142.32304	-538.94562	-562.25269	149.26796	-498.7605	-369.47861	555.7934	-409.08447	-471.16629	533.89032	-368.6662	-379.59833	1014.235	-565.92487	-692.97321	1116.5332	-409.59747	-433.96603	859.76538	-71.699936	-543.46014	890.97406	-43.192318	-594.68207	445.40121	3.7769706	-687.37256	458.63763	29.560472
